<?xml version="1.0" encoding="utf-8"?>
<!-- Generator: Adobe Illustrator 16.0.0, SVG Export Plug-In . SVG Version: 6.00 Build 0)  -->
<!DOCTYPE svg PUBLIC "-//W3C//DTD SVG 1.1//EN" "http://www.w3.org/Graphics/SVG/1.1/DTD/svg11.dtd">
<svg version="1.1" id="Capa_1" xmlns="http://www.w3.org/2000/svg" xmlns:xlink="http://www.w3.org/1999/xlink" x="0px" y="0px"
	 width="2000px" height="360px" viewBox="0 0 2000 360" enable-background="new 0 0 2000 360" xml:space="preserve">
<g id="XMLID_1_">
	<g>
		<path fill="#FFFFFF" d="M289.813,114.074v131.117c0,1.405-1.451,3.904-2.683,4.61l-114.468,65.566
			c-0.345,0.196-1.29,0.531-2.697,0.531c-1.393,0-2.338-0.335-2.683-0.531l-65.842-37.711v-41.702l58.601,33.74
			c2.786,1.603,6.34,2.484,10.005,2.484c3.672,0,7.227-0.882,10.012-2.491l63.16-36.393c5.754-3.321,9.946-10.577,9.946-17.242
			V150.86V93.227c-0.007-0.116-0.015-0.24-0.015-0.364V69.079c0-0.116,0.007-0.233,0.015-0.35V17.864l33.995,18.99
			c1.217,0.678,2.653,3.118,2.653,4.502v52.826h-0.007v19.813C289.806,114.016,289.813,114.045,289.813,114.074z"/>
		<path fill="#FFFFFF" d="M238.505,143.211v72.842c0,1.428-1.429,3.941-2.639,4.641l-63.16,36.392
			c-0.455,0.263-1.458,0.524-2.661,0.524s-2.199-0.262-2.661-0.524l-63.219-36.399c-1.246-0.714-2.727-3.227-2.727-4.633v-72.842
			c0-1.398,1.48-3.912,2.734-4.633l63.197-36.399c0.344-0.197,1.283-0.524,2.675-0.524s2.338,0.328,2.675,0.524l63.138,36.399
			C237.069,139.271,238.505,141.784,238.505,143.211z"/>
		<path fill="#FFFFFF" d="M238.505,81.608v41.651l-58.432-33.69c-2.785-1.603-6.348-2.484-10.027-2.484
			c-3.672,0-7.234,0.881-10.02,2.484l-63.204,36.4c-5.725,3.299-10.042,10.715-10.042,17.242v72.842
			c0,0.124,0.015,0.241,0.015,0.364h-0.015v52.841h-0.007v16.812h0.007v57.051l-33.995-18.335c-1.217-0.648-2.653-2.979-2.653-4.298
			v-49.81c-0.015-0.139-0.022-0.284-0.022-0.43v-26.114c0-0.152,0.007-0.291,0.022-0.43V114.074c0-1.406,1.451-3.904,2.683-4.611
			l114.468-65.566c0.345-0.196,1.29-0.532,2.683-0.532c1.407,0,2.353,0.335,2.697,0.532L238.505,81.608z"/>
	</g>
	<g>
	</g>
</g>
<rect x="119.111" y="121.084" fill="none" width="192.027" height="206"/>
<text transform="matrix(1 0 0 1 119.1118 233.584)" fill="#4D4D4D" font-family="'Roboto-Regular'" font-size="150">4</text>
<g>
	<path fill="#FFFFFF" d="M362.146,208.74v50.639h-17.057V130.027h47.708c7.343,0,13.829,0.977,19.457,2.932
		c5.626,1.954,10.35,4.694,14.17,8.218c3.82,3.524,6.721,7.7,8.707,12.526c1.984,4.828,2.977,10.113,2.977,15.858
		c0,6.219-0.992,11.771-2.977,16.657c-1.985,4.887-4.887,8.988-8.707,12.305c-3.82,3.316-8.543,5.849-14.17,7.596
		c-5.628,1.748-12.114,2.621-19.457,2.621H362.146z M362.146,194.793h30.65c4.975,0,9.253-0.623,12.837-1.865
		c3.583-1.244,6.516-2.978,8.795-5.198c2.279-2.222,3.954-4.856,5.02-7.907c1.066-3.05,1.599-6.411,1.599-10.083
		c0-3.317-0.533-6.53-1.599-9.64c-1.066-3.109-2.741-5.849-5.02-8.217c-2.28-2.369-5.212-4.265-8.795-5.686
		c-3.584-1.421-7.862-2.132-12.837-2.132h-30.65V194.793z"/>
	<path fill="#FFFFFF" d="M527.412,178.001c-1.422-0.237-2.741-0.399-3.953-0.488c-1.215-0.089-2.592-0.133-4.132-0.133
		c-5.686,0-10.32,1.244-13.903,3.731c-3.585,2.487-6.264,5.834-8.04,10.039v68.229h-16.436v-96.125h15.991l0.267,11.105
		c2.487-3.968,5.597-7.107,9.329-9.417c3.73-2.31,8.262-3.465,13.593-3.465c1.184,0,2.545,0.133,4.086,0.399
		c1.54,0.267,2.605,0.548,3.198,0.844V178.001z"/>
	<path fill="#FFFFFF" d="M560.039,210.429c0-6.989,1.021-13.46,3.065-19.412c2.043-5.952,4.943-11.12,8.706-15.502
		c3.761-4.383,8.336-7.818,13.726-10.306c5.388-2.487,11.43-3.731,18.124-3.731c6.81,0,12.927,1.244,18.346,3.731
		c5.42,2.488,10.023,5.923,13.814,10.306c3.789,4.382,6.692,9.55,8.707,15.502c2.012,5.952,3.021,12.423,3.021,19.412v1.954
		c0,6.988-1.009,13.459-3.021,19.414c-2.015,5.951-4.918,11.105-8.707,15.457c-3.791,4.354-8.382,7.76-13.771,10.219
		c-5.389,2.457-11.46,3.684-18.213,3.684c-6.751,0-12.823-1.227-18.211-3.684c-5.391-2.459-9.982-5.865-13.771-10.219
		c-3.791-4.352-6.708-9.506-8.751-15.457c-2.044-5.955-3.065-12.426-3.065-19.414V210.429z M576.563,212.383
		c0,4.797,0.563,9.328,1.688,13.594c1.123,4.262,2.828,8.012,5.107,11.238c2.279,3.229,5.122,5.787,8.529,7.684
		c3.406,1.895,7.388,2.844,11.948,2.844c4.501,0,8.47-0.949,11.905-2.844c3.434-1.896,6.276-4.455,8.528-7.684
		c2.251-3.227,3.954-6.977,5.109-11.238c1.155-4.266,1.732-8.797,1.732-13.594v-1.954c0-4.738-0.577-9.255-1.732-13.548
		c-1.155-4.295-2.874-8.055-5.153-11.283c-2.28-3.229-5.14-5.805-8.573-7.729c-3.435-1.925-7.433-2.888-11.993-2.888
		c-4.501,0-8.44,0.963-11.815,2.888c-3.376,1.925-6.206,4.501-8.485,7.729s-3.984,6.988-5.107,11.283
		c-1.126,4.293-1.688,8.81-1.688,13.548V212.383z"/>
	<path fill="#FFFFFF" d="M708.779,163.254V270.84c0,8.883-2.074,15.666-6.218,20.344c-4.146,4.68-10.454,7.02-18.924,7.02
		c-1.542,0-3.258-0.148-5.152-0.445c-1.896-0.295-3.523-0.682-4.887-1.156v-13.146c1.187,0.295,2.475,0.49,3.864,0.58
		c1.393,0.09,2.591,0.129,3.598,0.129c3.673,0,6.472-0.988,8.396-2.971c1.923-1.984,2.888-5.439,2.888-10.354V163.254H708.779z
		 M690.656,137.756c0-2.606,0.813-4.841,2.443-6.708c1.628-1.866,4.012-2.798,7.151-2.798c3.199,0,5.627,0.918,7.285,2.754
		c1.656,1.836,2.487,4.087,2.487,6.752c0,2.666-0.831,4.886-2.487,6.663c-1.658,1.777-4.086,2.666-7.285,2.666
		c-3.198,0-5.597-0.889-7.196-2.666C691.456,142.643,690.656,140.422,690.656,137.756z"/>
	<path fill="#FFFFFF" d="M798.797,261.156c-6.692,0-12.747-1.156-18.167-3.465c-5.419-2.311-10.054-5.521-13.903-9.637
		c-3.851-4.115-6.812-9.021-8.884-14.707c-2.074-5.686-3.109-11.902-3.109-18.654v-3.732c0-7.817,1.168-14.807,3.509-20.966
		c2.34-6.159,5.464-11.342,9.373-15.547s8.381-7.418,13.415-9.639c5.032-2.221,10.273-3.332,15.724-3.332
		c6.87,0,12.792,1.199,17.768,3.598c4.975,2.398,9.076,5.7,12.309,9.905c3.227,4.205,5.607,9.181,7.147,14.926
		s2.311,11.994,2.311,18.746v7.373h-65.12c0.119,4.441,0.845,8.588,2.177,12.437c1.333,3.851,3.229,7.196,5.687,10.038
		c2.456,2.844,5.419,5.096,8.886,6.752c3.464,1.658,7.385,2.49,11.769,2.49c5.805,0,10.72-1.188,14.747-3.555
		c4.027-2.369,7.552-5.508,10.573-9.418l10.038,7.818c-1.54,2.369-3.405,4.666-5.598,6.889c-2.191,2.221-4.749,4.203-7.682,5.951
		c-2.931,1.746-6.295,3.141-10.086,4.176C807.889,260.641,803.594,261.156,798.797,261.156z M796.754,174.98
		c-3.317,0-6.367,0.607-9.151,1.822c-2.783,1.214-5.271,2.976-7.461,5.286c-2.191,2.311-4.013,5.184-5.464,8.618
		c-1.453,3.435-2.442,7.374-2.977,11.815h48.151v-1.244c-0.178-3.197-0.697-6.366-1.552-9.506c-0.859-3.139-2.191-5.951-3.998-8.439
		c-1.811-2.488-4.135-4.501-6.978-6.041C804.482,175.75,800.959,174.98,796.754,174.98z"/>
	<path fill="#FFFFFF" d="M917.512,247.742c2.899,0,5.687-0.475,8.352-1.422c2.666-0.949,5.017-2.252,7.061-3.91
		c2.042-1.658,3.701-3.625,4.975-5.904c1.272-2.281,2.031-4.757,2.269-7.422h15.547c-0.237,4.264-1.41,8.338-3.512,12.219
		c-2.104,3.879-4.872,7.285-8.305,10.217c-3.435,2.932-7.42,5.271-11.951,7.018c-4.531,1.748-9.341,2.619-14.435,2.619
		c-7.229,0-13.521-1.285-18.881-3.863c-5.36-2.576-9.813-6.057-13.367-10.439c-3.554-4.385-6.208-9.478-7.955-15.282
		c-1.747-5.803-2.618-11.933-2.618-18.389v-3.731c0-6.455,0.871-12.586,2.618-18.391c1.747-5.804,4.401-10.897,7.955-15.28
		c3.554-4.382,7.994-7.862,13.325-10.439c5.33-2.576,11.606-3.864,18.835-3.864c5.626,0,10.731,0.888,15.321,2.665
		c4.591,1.777,8.559,4.22,11.905,7.33s5.967,6.796,7.865,11.061c1.896,4.265,2.961,8.854,3.198,13.771h-15.547
		c-0.237-2.961-0.937-5.73-2.092-8.307c-1.153-2.576-2.706-4.826-4.66-6.752c-1.955-1.925-4.282-3.45-6.978-4.575
		c-2.694-1.125-5.697-1.688-9.014-1.688c-5.097,0-9.317,1.007-12.663,3.021s-6.041,4.665-8.085,7.952
		c-2.043,3.287-3.477,6.988-4.305,11.104c-0.833,4.116-1.245,8.247-1.245,12.394v3.731c0,4.265,0.412,8.454,1.245,12.571
		c0.828,4.117,2.249,7.802,4.263,11.059c2.012,3.258,4.709,5.895,8.085,7.906C908.096,246.734,912.359,247.742,917.512,247.742z"/>
	<path fill="#FFFFFF" d="M1020.142,139.978v23.276h17.946v12.705h-17.946v59.611c0,2.487,0.297,4.489,0.889,5.999
		s1.38,2.678,2.356,3.506c0.978,0.83,2.1,1.383,3.376,1.646c1.274,0.268,2.588,0.396,3.95,0.396c1.363,0,2.803-0.129,4.313-0.396
		c1.51-0.264,2.678-0.492,3.506-0.668v13.326c-1.303,0.355-2.99,0.74-5.063,1.156c-2.073,0.414-4.591,0.621-7.552,0.621
		c-3.02,0-5.875-0.428-8.569-1.285c-2.698-0.859-5.053-2.299-7.067-4.313c-2.014-2.016-3.611-4.66-4.797-7.949
		c-1.185-3.287-1.776-7.332-1.776-12.129v-59.522h-17.502v-12.705h17.502v-23.276H1020.142z"/>
	<path fill="#FFFFFF" d="M1217.327,215.937h17.946v13.414h-17.946v30.028h-16.524v-30.028H1141.9v-9.683l57.925-89.641h17.502
		V215.937z M1160.558,215.937h40.245v-63.433l-1.954,3.554L1160.558,215.937z"/>
	<path fill="#FFFFFF" d="M1346.722,259.379V130.027h36.515c8.527,0,16.286,1.421,23.274,4.264c6.989,2.843,12.983,6.9,17.988,12.171
		c5.005,5.272,8.884,11.668,11.639,19.19c2.753,7.522,4.133,15.963,4.133,25.32v7.64c0,9.358-1.38,17.798-4.133,25.319
		c-2.755,7.521-6.663,13.904-11.728,19.146c-5.064,5.244-11.206,9.271-18.432,12.084c-7.225,2.813-15.311,4.217-24.254,4.217
		H1346.722z M1363.779,144.064v101.368h17.945c6.87,0,12.912-1.109,18.125-3.33c5.211-2.221,9.564-5.379,13.059-9.465
		s6.112-9,7.859-14.745s2.623-12.172,2.623-19.279v-7.906c0-7.403-0.888-13.993-2.665-19.768
		c-1.776-5.774-4.382-10.661-7.817-14.659s-7.641-7.033-12.615-9.106c-4.976-2.073-10.66-3.109-17.057-3.109H1363.779z"/>
	<path fill="#FFFFFF" d="M1526.998,261.156c-6.692,0-12.746-1.156-18.165-3.465c-5.42-2.311-10.057-5.521-13.907-9.637
		c-3.849-4.115-6.811-9.021-8.884-14.707c-2.072-5.686-3.109-11.902-3.109-18.654v-3.732c0-7.817,1.173-14.807,3.513-20.966
		c2.339-6.159,5.461-11.342,9.369-15.547c3.91-4.205,8.381-7.418,13.416-9.639c5.033-2.221,10.274-3.332,15.725-3.332
		c6.87,0,12.793,1.199,17.768,3.598c4.975,2.398,9.08,5.7,12.309,9.905c3.227,4.205,5.607,9.181,7.147,14.926
		s2.311,11.994,2.311,18.746v7.373h-65.121c0.119,4.441,0.848,8.588,2.181,12.437c1.332,3.851,3.227,7.196,5.686,10.038
		c2.457,2.844,5.419,5.096,8.884,6.752c3.464,1.658,7.386,2.49,11.769,2.49c5.805,0,10.72-1.188,14.747-3.555
		c4.027-2.369,7.552-5.508,10.573-9.418l10.038,7.818c-1.54,2.369-3.405,4.666-5.597,6.889c-2.192,2.221-4.75,4.203-7.683,5.951
		c-2.931,1.746-6.295,3.141-10.085,4.176C1536.09,260.641,1531.795,261.156,1526.998,261.156z M1524.955,174.98
		c-3.316,0-6.367,0.607-9.151,1.822c-2.783,1.214-5.271,2.976-7.462,5.286c-2.191,2.311-4.01,5.184-5.461,8.618
		s-2.447,7.374-2.979,11.815h48.152v-1.244c-0.178-3.197-0.693-6.366-1.552-9.506c-0.859-3.139-2.191-5.951-3.998-8.439
		c-1.807-2.488-4.135-4.501-6.978-6.041C1532.684,175.75,1529.16,174.98,1524.955,174.98z"/>
	<path fill="#FFFFFF" d="M1663.127,233.882c0-1.776-0.268-3.448-0.801-5.018c-0.532-1.569-1.587-3.052-3.156-4.443
		c-1.57-1.392-3.802-2.68-6.704-3.864c-2.902-1.186-6.723-2.281-11.462-3.287c-5.33-1.126-10.127-2.459-14.392-3.998
		c-4.264-1.54-7.895-3.391-10.886-5.553c-2.99-2.162-5.283-4.723-6.882-7.685s-2.399-6.427-2.399-10.395
		c0-3.79,0.841-7.389,2.53-10.794c1.688-3.406,4.073-6.397,7.154-8.974c3.08-2.576,6.811-4.619,11.193-6.129
		c4.383-1.511,9.269-2.266,14.659-2.266c5.744,0,10.88,0.785,15.41,2.354c4.531,1.569,8.382,3.716,11.55,6.441
		c3.169,2.724,5.585,5.908,7.244,9.55c1.657,3.642,2.487,7.537,2.487,11.682h-16.525c0-1.954-0.443-3.923-1.332-5.907
		s-2.191-3.761-3.908-5.331c-1.718-1.57-3.82-2.843-6.309-3.82s-5.36-1.466-8.617-1.466c-3.435,0-6.354,0.4-8.754,1.2
		c-2.398,0.799-4.365,1.865-5.905,3.198c-1.54,1.333-2.665,2.842-3.376,4.532c-0.71,1.688-1.066,3.42-1.066,5.196
		s0.297,3.376,0.889,4.798c0.593,1.422,1.718,2.709,3.376,3.864c1.659,1.155,3.921,2.222,6.794,3.198
		c2.872,0.977,6.592,1.969,11.152,2.977c5.863,1.361,10.957,2.902,15.28,4.619c4.324,1.718,7.907,3.717,10.75,5.998
		c2.843,2.279,4.957,4.9,6.35,7.861c1.392,2.961,2.091,6.395,2.091,10.305c0,4.204-0.877,8.055-2.625,11.549
		c-1.747,3.494-4.245,6.486-7.504,8.973c-3.257,2.488-7.166,4.432-11.727,5.822c-4.561,1.393-9.624,2.086-15.191,2.086
		c-6.396,0-12.041-0.889-16.928-2.666c-4.886-1.777-8.985-4.129-12.302-7.061s-5.833-6.277-7.552-10.039
		c-1.717-3.762-2.576-7.628-2.576-11.596h16.436c0.178,3.375,0.989,6.207,2.441,8.486c1.45,2.279,3.274,4.129,5.466,5.549
		c2.192,1.422,4.591,2.43,7.196,3.023c2.605,0.59,5.212,0.889,7.818,0.889c3.376,0,6.337-0.357,8.884-1.068
		c2.547-0.709,4.69-1.688,6.438-2.932c1.747-1.242,3.067-2.707,3.956-4.395S1663.127,235.835,1663.127,233.882z"/>
	<path fill="#FFFFFF" d="M1724.717,137.756c0-2.665,0.812-4.916,2.44-6.752c1.628-1.836,4.046-2.754,7.243-2.754
		c3.199,0,5.627,0.918,7.285,2.754s2.487,4.087,2.487,6.752c0,2.666-0.829,4.886-2.487,6.663s-4.086,2.666-7.285,2.666
		c-3.197,0-5.615-0.889-7.243-2.666C1725.528,142.643,1724.717,140.422,1724.717,137.756z M1742.485,259.379h-16.436v-96.125h16.436
		V259.379z"/>
	<path fill="#FFFFFF" d="M1788.523,210.518c0-7.345,0.876-14.022,2.623-20.033c1.747-6.012,4.265-11.165,7.552-15.459
		s7.268-7.625,11.946-9.995c4.679-2.37,9.95-3.554,15.814-3.554c6.1,0,11.4,1.066,15.901,3.198s8.351,5.212,11.55,9.239
		l0.799-10.661h15.016v94.082c0,6.338-0.99,11.98-2.975,16.926c-1.983,4.947-4.785,9.123-8.397,12.527
		c-3.613,3.404-7.908,5.992-12.882,7.77c-4.977,1.777-10.484,2.666-16.525,2.666c-2.486,0-5.342-0.279-8.57-0.84
		c-3.228-0.563-6.485-1.482-9.772-2.754c-3.287-1.275-6.443-2.98-9.464-5.113c-3.021-2.131-5.598-4.768-7.73-7.906l8.529-9.861
		c2.014,2.488,4.088,4.561,6.219,6.219c2.132,1.658,4.283,2.992,6.444,4c2.161,1.004,4.354,1.734,6.573,2.178
		c2.223,0.445,4.425,0.662,6.616,0.662c3.851,0,7.345-0.543,10.483-1.639c3.14-1.096,5.822-2.742,8.043-4.934
		c2.222-2.191,3.921-4.869,5.105-8.039c1.186-3.168,1.777-6.857,1.777-11.061v-8.354c-3.199,3.672-7,6.484-11.413,8.441
		c-4.413,1.955-9.583,2.932-15.506,2.932c-5.745,0-10.939-1.215-15.589-3.643c-4.648-2.43-8.617-5.816-11.905-10.17
		c-3.286-4.354-5.82-9.508-7.598-15.459c-1.776-5.953-2.665-12.453-2.665-19.502V210.518z M1805.047,212.383
		c0,4.797,0.492,9.313,1.47,13.549c0.977,4.236,2.486,7.92,4.53,11.059s4.661,5.627,7.859,7.463s7.019,2.756,11.461,2.756
		c2.902,0,5.525-0.355,7.865-1.068c2.34-0.709,4.442-1.688,6.308-2.932c1.866-1.244,3.506-2.725,4.928-4.441
		c1.421-1.718,2.665-3.613,3.731-5.686v-43.887c-1.066-1.954-2.311-3.775-3.731-5.464c-1.422-1.688-3.062-3.153-4.928-4.397
		c-1.865-1.244-3.956-2.206-6.267-2.887c-2.309-0.681-4.886-1.022-7.729-1.022c-4.502,0-8.351,0.933-11.55,2.799
		c-3.197,1.865-5.834,4.397-7.906,7.597c-2.073,3.197-3.596,6.914-4.572,11.148c-0.978,4.234-1.47,8.751-1.47,13.549V212.383z"/>
	<path fill="#FFFFFF" d="M1933.713,163.254l0.533,12.082c3.436-4.323,7.581-7.714,12.438-10.172s10.306-3.687,16.348-3.687
		c4.679,0,8.912,0.636,12.703,1.91c3.791,1.273,7.02,3.316,9.685,6.13c2.665,2.813,4.72,6.426,6.171,10.838
		c1.451,4.412,2.18,9.757,2.18,16.036v62.987h-16.436v-63.165c0-3.731-0.414-6.915-1.243-9.55c-0.83-2.637-2.062-4.783-3.69-6.441
		c-1.628-1.659-3.644-2.873-6.042-3.643s-5.164-1.155-8.303-1.155c-5.331,0-10.01,1.422-14.037,4.265
		c-4.028,2.843-7.167,6.574-9.417,11.193v68.496h-16.436v-96.125H1933.713z"/>
</g>
</svg>
